<svg width="825" height="255" viewBox="0 0 825 255" fill="none" xmlns="http://www.w3.org/2000/svg">
<path d="M409 0C387.994 3.79301 368.843 12.9201 353 25.9282V77.0381H316.104C312.583 86.2257 310.133 95.9433 308.906 106.038H353V216.148C368.843 229.156 387.994 238.283 409 242.076V106.038H553.095C551.867 95.9433 549.417 86.2257 545.896 77.0381H409V0Z" fill="white"/>
<path d="M55 56.2559C46.5522 57.0463 38.9989 59.2342 32.34 62.8198C24.7133 66.7798 18.7733 72.2065 14.52 79.0998C10.4133 85.9931 8.36 94.1331 8.36 103.52C8.36 111.293 9.75333 117.893 12.54 123.32C15.4733 128.6 19.2133 133.073 23.76 136.74C28.4533 140.26 33.44 143.266 38.72 145.76C44 148.253 49.1333 150.453 54.12 152.36C54.4151 152.472 54.7085 152.585 55 152.7V118.084C51.374 116.068 48.294 113.853 45.76 111.44C42.8267 108.36 41.36 104.913 41.36 101.1C41.36 95.5265 43.34 91.3465 47.3 88.5598C49.4388 87.0547 52.0055 85.9561 55 85.2639V56.2559Z" fill="white"/>
<path d="M59 84.6068V56C71.9336 56.0203 82.407 57.5603 90.42 60.6198C98.6333 63.6998 105.967 67.3665 112.42 71.6198L100.32 96.0398C94.16 92.6665 87.8533 89.8798 81.4 87.6798C75.0933 85.4798 69.1533 84.3798 63.58 84.3798C61.9737 84.3798 60.447 84.4555 59 84.6068Z" fill="white"/>
<path d="M59 120.116V154.414C61.3938 155.529 63.6538 156.751 65.78 158.08C69.4467 160.28 72.3067 162.7 74.36 165.34C76.56 167.98 77.66 170.913 77.66 174.14C77.66 175.14 77.6001 176.093 77.4802 177H110.793C110.851 176.055 110.88 175.101 110.88 174.14C110.88 166.366 109.78 159.84 107.58 154.56C105.38 149.133 102.447 144.66 98.78 141.14C95.1133 137.473 90.9333 134.466 86.24 132.12C81.6933 129.626 77.0733 127.5 72.38 125.74C67.8034 124.04 63.3434 122.165 59 120.116Z" fill="white"/>
<path d="M110.365 181H76.4426C75.7904 182.584 74.8762 183.964 73.7 185.14C71.2067 187.78 67.98 189.686 64.02 190.86C62.3467 191.31 60.6734 191.662 59 191.915V220.496C69.4768 220.112 78.4102 218.007 85.8 214.18C94.0133 209.78 100.247 204.06 104.5 197.02C107.545 191.98 109.5 186.64 110.365 181Z" fill="white"/>
<path d="M55 220.559V192.331C54.1934 192.377 53.3867 192.4 52.58 192.4C48.7667 192.4 44.5867 191.813 40.04 190.64C35.4933 189.466 30.9467 187.853 26.4 185.8C22 183.6 17.8933 181.106 14.08 178.32L0 203.18C5.72 207.14 11.66 210.44 17.82 213.08C23.98 215.573 30.2133 217.48 36.52 218.8C42.8198 219.945 48.9798 220.532 55 220.559Z" fill="white"/>
<path d="M122.034 181H146.791C146.608 182.641 146.517 184.299 146.517 185.974V217.627H122.034V181Z" fill="#D7DBDC"/>
<path d="M147.426 177H122.034V141.206H144.243L145.978 153.351C148.982 148.353 152.717 144.479 157.184 141.73C161.731 138.816 167.21 137.358 173.623 137.358C177.82 137.358 181.492 137.941 184.64 139.107C187.904 140.273 190.644 142.022 192.859 144.353C194.909 146.404 196.36 149.053 197.212 152.302C200.334 147.969 204.013 144.445 208.248 141.73C212.912 138.816 217.75 137.358 222.763 137.358C230.341 137.358 236.345 139.515 240.775 143.829C245.322 148.026 247.654 153.505 247.77 160.267V177H223.463V170.41C223.346 167.029 222.821 164.289 221.889 162.191C220.956 159.976 218.799 158.752 215.418 158.518C211.454 158.518 208.073 159.917 205.275 162.715C202.594 165.397 200.554 168.895 199.155 173.208C198.773 174.457 198.448 175.721 198.18 177H172.748V170.41C172.632 167.029 171.99 164.289 170.825 162.191C169.775 159.976 167.56 158.752 164.179 158.518C160.332 158.518 157.067 159.917 154.386 162.715C151.821 165.397 149.839 168.836 148.44 173.033C148.04 174.344 147.702 175.666 147.426 177Z" fill="#D7DBDC"/>
<path d="M172.748 181V217.627H197.231V186.324C197.231 184.522 197.332 182.747 197.533 181H172.748Z" fill="#D7DBDC"/>
<path d="M223.463 181V217.627H247.77V181H223.463Z" fill="#D7DBDC"/>
<path d="M251.332 181C251.507 189.538 253.193 196.617 256.389 202.238C259.77 208.183 264.316 212.614 270.029 215.528C275.858 218.326 282.329 219.725 289.44 219.725C293.987 219.725 297.893 219.026 301.157 217.627C304.538 216.344 307.336 214.829 309.551 213.08C311.883 211.215 313.632 209.641 314.798 208.358C314.857 208.287 314.915 208.217 314.973 208.149V217.627H339.455V181H314.973V188.247C313.69 190.812 312.174 192.969 310.426 194.718C308.677 196.35 306.637 197.632 304.305 198.565C301.973 199.381 299.35 199.789 296.436 199.789C292.821 199.789 289.44 198.857 286.293 196.991C283.261 195.126 280.813 192.561 278.948 189.297C277.507 186.775 276.622 184.009 276.294 181H251.332Z" fill="#D7DBDC"/>
<path d="M314.973 177V169.536C314.04 166.971 312.641 164.814 310.775 163.065C308.91 161.2 306.695 159.801 304.13 158.868C301.565 157.819 298.709 157.294 295.561 157.294C292.064 157.294 288.799 158.227 285.768 160.092C282.853 161.841 280.522 164.289 278.773 167.437C277.209 170.252 276.345 173.44 276.179 177H251.368C251.677 169.425 253.409 162.798 256.563 157.119C260.061 150.824 264.666 145.986 270.379 142.605C276.091 139.107 282.154 137.358 288.566 137.358C296.144 137.358 301.857 138.641 305.704 141.206C309.485 143.541 312.629 146.141 315.137 149.006L316.721 141.206H339.455V177H314.973Z" fill="#D7DBDC"/>
<path d="M425.282 181C425.497 188.797 427.238 195.526 430.505 201.188C434.119 207.134 439.132 211.739 445.544 215.004C452.073 218.151 459.709 219.725 468.453 219.725C473.349 219.725 478.304 218.909 483.317 217.277C488.447 215.645 492.702 213.488 496.083 210.806L483.842 195.417C482.21 196.816 480.228 197.924 477.896 198.74C475.681 199.439 473.233 199.789 470.551 199.789C466.354 199.789 462.682 198.915 459.534 197.166C456.503 195.301 454.113 192.794 452.364 189.646C450.88 186.974 450.026 184.092 449.801 181H425.282Z" fill="#D7DBDC"/>
<path d="M449.84 177H425.308C425.631 169.492 427.538 163.04 431.03 157.644C434.877 151.582 439.89 146.977 446.069 143.829C452.365 140.681 458.951 139.107 465.83 139.107C472.708 139.107 478.654 140.04 483.667 141.905C488.797 143.77 493.169 146.219 496.783 149.25L484.891 164.989C483.259 163.706 480.986 162.424 478.071 161.142C475.273 159.743 471.95 159.043 468.103 159.043C464.722 159.043 461.633 159.917 458.835 161.666C456.037 163.415 453.822 165.805 452.19 168.836C450.885 171.259 450.101 173.981 449.84 177Z" fill="#D7DBDC"/>
<path d="M499.146 181V217.627H523.629V186.499C523.629 184.588 523.721 182.755 523.905 181H499.146Z" fill="#D7DBDC"/>
<path d="M524.512 177H499.146V112.5H523.104V153.314C525.775 148.677 529.505 144.932 534.296 142.08C539.193 139.049 545.197 137.533 552.309 137.533C559.537 137.533 565.541 139.69 570.321 144.004C575.218 148.201 577.724 153.68 577.841 160.442V177H553.358V169.536C553.242 166.155 552.309 163.473 550.56 161.491C548.928 159.393 546.13 158.344 542.166 158.344C538.435 158.344 535.171 159.568 532.373 162.016C529.575 164.464 527.418 167.787 525.902 171.984C525.331 173.565 524.868 175.237 524.512 177Z" fill="#D7DBDC"/>
<path d="M553.358 181V217.627H577.841V181H553.358Z" fill="#D7DBDC"/>
<path d="M587.241 181V198.39C587.474 205.152 589.922 210.69 594.585 215.004C599.249 219.201 605.02 221.299 611.898 221.299C616.445 221.299 620.526 220.6 624.14 219.201C627.87 217.918 631.076 216.053 633.758 213.605C636.385 211.206 638.564 208.472 640.296 205.402L641.977 217.627H664.187V181H638.964C638.592 183.046 638.081 184.996 637.43 186.848C636.031 191.045 633.991 194.368 631.31 196.816C628.745 199.265 625.655 200.489 622.041 200.489C618.427 200.489 615.862 199.498 614.347 197.516C612.831 195.417 611.957 192.678 611.723 189.297V181H587.241Z" fill="#D7DBDC"/>
<path d="M639.501 177H664.187V141.206H639.704V172.334C639.704 173.936 639.636 175.491 639.501 177Z" fill="#D7DBDC"/>
<path d="M673.627 181V254.351H697.935V210.661C700.722 213.46 704.103 215.665 708.078 217.277C712.508 218.909 716.997 219.725 721.544 219.725C729.705 219.725 736.933 218.151 743.228 215.004C749.524 211.856 754.479 207.251 758.093 201.188C761.447 195.563 763.244 188.834 763.486 181H738.633C738.406 184.487 737.373 187.66 735.534 190.521C733.552 193.669 730.87 196.117 727.489 197.866C724.225 199.614 720.611 200.489 716.647 200.489C713.732 200.489 710.993 200.022 708.428 199.09C705.979 198.04 703.881 196.583 702.132 194.718C700.383 192.852 699.043 190.696 698.11 188.247V181H673.627Z" fill="#D7DBDC"/>
<path d="M698.11 177H673.627V139.457H694.612L696.762 148.591C700.578 145.426 704.816 142.789 709.477 140.681C714.374 138.466 720.028 137.358 726.44 137.358C733.552 137.358 739.906 139.049 745.502 142.43C751.098 145.694 755.47 150.474 758.618 156.77C761.611 162.435 763.232 169.178 763.48 177H738.571C738.274 173.73 737.378 170.834 735.884 168.312C734.135 165.047 731.686 162.541 728.539 160.792C725.508 158.926 722.127 157.994 718.396 157.994C715.131 157.994 712.217 158.46 709.652 159.393C707.204 160.209 704.989 161.491 703.007 163.24C701.141 164.872 699.509 166.971 698.11 169.536V177Z" fill="#D7DBDC"/>
<path d="M772.652 181C775.591 183.322 779.367 185.213 783.979 186.673C786.777 187.49 789.4 188.306 791.848 189.122C794.297 189.821 796.279 190.754 797.794 191.92C799.426 193.086 800.242 194.66 800.242 196.641C800.242 198.04 799.776 199.206 798.844 200.139C797.911 200.955 796.628 201.596 794.996 202.063C793.481 202.412 791.732 202.587 789.75 202.587C787.185 202.587 784.27 201.888 781.006 200.489C777.858 198.973 774.419 196.525 770.688 193.144L760.545 206.609C764.276 210.573 768.823 213.663 774.186 215.878C779.665 218.093 785.553 219.201 791.848 219.201C799.31 219.201 805.431 217.918 810.211 215.353C815.107 212.788 818.721 209.466 821.053 205.385C823.501 201.188 824.725 196.758 824.725 192.095C824.725 188.247 823.968 184.983 822.452 182.302C822.23 181.858 821.992 181.424 821.737 181H772.652Z" fill="#D7DBDC"/>
<path d="M818.545 177H768.726C765.72 172.702 764.218 168.057 764.218 163.065C764.218 159.218 765.209 155.371 767.191 151.523C769.289 147.559 772.554 144.295 776.984 141.73C781.531 139.049 787.36 137.708 794.472 137.708C800.884 137.708 806.305 138.349 810.735 139.632C815.165 140.914 819.362 143.013 823.326 145.927L814.058 160.267C811.843 158.518 809.336 157.061 806.538 155.895C803.857 154.613 801.35 153.913 799.018 153.797C796.92 153.68 795.113 153.913 793.597 154.496C792.198 155.079 791.091 155.837 790.275 156.77C789.458 157.702 789.05 158.693 789.05 159.743C788.934 161.958 789.75 163.706 791.499 164.989C793.364 166.271 795.696 167.262 798.494 167.962C801.292 168.661 804.032 169.477 806.713 170.41C810.444 171.576 813.65 173.15 816.331 175.132C817.125 175.719 817.863 176.341 818.545 177Z" fill="#D7DBDC"/>
<path d="M611.723 177H587.241V141.206H611.723V177Z" fill="#D7DBDC"/>
</svg>
